<?xml version="1.0" encoding="UTF-8"?>
<svg enable-background="new 0 0 512 512" version="1.1" viewBox="0 0 512 512" xml:space="preserve" xmlns="http://www.w3.org/2000/svg">
		<g fill="#444">
			<circle cx="256" cy="256" r="85.333"/>
			<path d="m501.33 234.67h-54.592c-9.875-88.837-80.561-159.53-169.41-169.41v-54.591c0-5.896-4.77-10.667-10.666-10.667h-21.333c-5.896 0-10.667 4.771-10.667 10.667v54.591c-88.847 9.876-159.53 80.571-169.41 169.41h-54.592c-5.896 0-10.667 4.771-10.667 10.666v21.333c0 5.896 4.771 10.667 10.667 10.667h54.592c9.875 88.837 80.561 159.53 169.41 169.41v54.591c0 5.896 4.771 10.667 10.667 10.667h21.333c5.896 0 10.667-4.771 10.667-10.667v-54.591c88.846-9.876 159.53-80.572 169.41-169.41h54.592c5.896 0 10.667-4.771 10.667-10.667v-21.333c-1e-3 -5.895-4.772-10.666-10.668-10.666zm-245.33 170.67c-82.333 0-149.33-66.99-149.33-149.33s67-149.33 149.33-149.33 149.33 66.989 149.33 149.33-67 149.33-149.33 149.33z"/>
		</g>
</svg>
